# xmcd
#
# Track frame offsets: 
#        150
#        9783
#        24448
#        35873
#        48010
#        58247
#        69359
#        78512
#        88994
#        99967
#        111471
#        129668
#        140920
#        152569
#        166214
#        179361
#        189213
#        200321
#        213187
#        221469
#        231665
#        240779
#        251949
#        282706
#        290955
#
# Disc length: 4636 seconds
#
# Revision: 0
# Processed by: cddbd v1.5.2PL0 Copyright (c) Steve Scherf et al.
# Submitted via: ExactAudioCopy v0.95b3
#
DISCID=72121a19
DTITLE=Gil Trythall - Country Moog (Switched On Nashville) and Nashville
DTITLE=Gold (Switched On Moog)
DYEAR=1972
DGENRE=Instrumental
TTITLE0=Foggy Mountain Breakdown
TTITLE1=Folsom Prison Blues
TTITLE2=Last Date
TTITLE3=Harper Valley P.T.A.
TTITLE4=Cattle Call
TTITLE5=Gentle On My Mind
TTITLE6=Wildwood Flower
TTITLE7=Orange Blossom Special
TTITLE8=Walking The Floor Over You
TTITLE9=Decker's Creek
TTITLE10=Little Green Apples
TTITLE11=Yakety Moog
TTITLE12=Polk Salad Annie
TTITLE13=Ode To Billie Joe
TTITLE14=Honey
TTITLE15=Kansas City
TTITLE16=Mockin' Bird Hill
TTITLE17=Wichita Lineman
TTITLE18=Martha White Theme
TTITLE19=I Can't Stop Loving You
TTITLE20=King Of The Road
TTITLE21=Tennessee Waltz
TTITLE22=Nashville Moog
TTITLE23=The Play Of Electrons (Excerpt)
TTITLE24=EchoSpace
EXTD=
EXTT0=
EXTT1=
EXTT2=
EXTT3=
EXTT4=
EXTT5=
EXTT6=
EXTT7=
EXTT8=
EXTT9=
EXTT10=
EXTT11=
EXTT12=
EXTT13=
EXTT14=
EXTT15=
EXTT16=
EXTT17=
EXTT18=
EXTT19=
EXTT20=
EXTT21=
EXTT22=
EXTT23=
EXTT24=
PLAYORDER=
